<svg width="125" height="33" viewBox="0 0 125 33" fill="none" xmlns="http://www.w3.org/2000/svg">
<g filter="url(#filter0_d_3_50)">
<path fill-rule="evenodd" clip-rule="evenodd" d="M19.2126 6.51992C17.1534 6.37223 15.4065 7.63687 14.4329 7.63687C13.4438 7.63687 11.9192 6.55176 10.3026 6.58006C8.18049 6.61189 6.22325 7.77925 5.12942 9.6258C2.92445 13.3428 4.56656 18.8488 6.71415 21.8627C7.76427 23.3378 9.01658 24.9969 10.6623 24.9368C12.2471 24.8757 12.8455 23.9401 14.7599 23.9401C16.6734 23.9401 17.2135 24.9368 18.8884 24.9049C20.5925 24.8757 21.6735 23.4033 22.7155 21.9202C23.9222 20.2107 24.4186 18.5561 24.4477 18.4659C24.4095 18.4535 21.1243 17.2269 21.0916 13.5524C21.0624 10.481 23.6745 9.00321 23.7938 8.93157C22.3102 6.81176 20.0196 6.57829 19.2126 6.51992ZM101.509 18.5172V18.8426C101.509 22.0502 99.0926 24.92 94.2436 24.92C89.4083 24.92 86.534 21.9724 86.534 16.821V14.6693C86.534 9.57097 89.422 6.53142 94.2564 6.53142C98.7956 6.53142 101.509 9.31008 101.509 12.7786V12.9607H97.8685C97.8685 11.2008 96.7136 9.63553 94.2828 9.63553C91.6907 9.63553 90.3874 11.3176 90.3874 14.6693V16.821C90.3874 20.2116 91.678 21.7902 94.3092 21.7902C96.9286 21.7902 97.8685 20.3549 97.8685 18.5172H101.509ZM35.3087 19.5342H35.3624L38.6266 6.81883H42.481L45.7579 19.5342H45.8116L48.8481 6.81883H52.9038L47.8135 24.621H43.9582L40.5875 12.4522H40.5201L37.1484 24.621H33.3214L28.2174 6.81883H32.274L35.3087 19.5342ZM109.352 13.9654H116.846V6.81883H120.661V24.621H116.846V17.0306H109.352V24.621H105.552V6.81883H109.352V13.9654ZM84.0758 6.81883V9.89641H78.6103V24.621H74.8224V9.89641H69.3696V6.81883H84.0758ZM63.5398 6.81883L69.4361 24.6202H65.3659L64.0589 20.1338H58.26L56.9321 24.6202H53.1315L59.0415 6.81883H63.5398ZM63.2638 17.3958L61.2036 10.3271H61.1636L59.0715 17.3958H63.2638ZM17.8583 4.62473C16.9785 5.6046 15.5932 6.35012 14.2335 6.24842C14.0404 4.85467 14.7508 3.40077 15.5595 2.49165C16.4621 1.46756 17.984 0.700816 19.2427 0.653061C19.4048 2.07335 18.8155 3.50424 17.9412 4.52834L17.9002 4.57698L17.8583 4.62473Z" fill="#5283FF"/>
</g>
<defs>
<filter id="filter0_d_3_50" x="0.0830078" y="0.653061" width="124.578" height="32.2853" filterUnits="userSpaceOnUse" color-interpolation-filters="sRGB">
<feFlood flood-opacity="0" result="BackgroundImageFix"/>
<feColorMatrix in="SourceAlpha" type="matrix" values="0 0 0 0 0 0 0 0 0 0 0 0 0 0 0 0 0 0 127 0" result="hardAlpha"/>
<feOffset dy="4"/>
<feGaussianBlur stdDeviation="2"/>
<feComposite in2="hardAlpha" operator="out"/>
<feColorMatrix type="matrix" values="0 0 0 0 0 0 0 0 0 0 0 0 0 0 0 0 0 0 0.25 0"/>
<feBlend mode="normal" in2="BackgroundImageFix" result="effect1_dropShadow_3_50"/>
<feBlend mode="normal" in="SourceGraphic" in2="effect1_dropShadow_3_50" result="shape"/>
</filter>
</defs>
</svg>
